<?xml version="1.0" standalone="no"?>
<!DOCTYPE svg PUBLIC "-//W3C//DTD SVG 20010904//EN"
 "http://www.w3.org/TR/2001/REC-SVG-20010904/DTD/svg10.dtd">
<svg version="1.0" xmlns="http://www.w3.org/2000/svg"
 width="300.000000pt" height="275.000000pt" viewBox="0 0 300.000000 275.000000"
 preserveAspectRatio="xMidYMid meet">
<metadata>
Created by potrace 1.10, written by Peter Selinger 2001-2011
</metadata>
<g transform="translate(0.000000,275.000000) scale(0.100000,-0.100000)"
fill="#000000" stroke="none">
<path d="M1715 2380 c11 -5 27 -9 35 -9 9 0 8 4 -5 9 -11 5 -27 9 -35 9 -9 0
-8 -4 5 -9z"/>
<path d="M1775 2360 c3 -5 34 -26 68 -46 225 -132 373 -301 448 -514 37 -104
48 -172 50 -315 1 -101 -3 -136 -25 -220 -51 -194 -165 -380 -293 -477 -117
-87 -237 -140 -461 -202 -200 -56 -484 -17 -667 92 -139 82 -236 191 -323 360
-28 54 -58 105 -67 112 -8 7 -15 27 -15 44 0 34 -38 237 -45 245 -3 2 -5 -56
-5 -130 0 -151 22 -268 58 -314 12 -16 22 -42 22 -60 0 -47 70 -179 140 -263
34 -40 93 -99 133 -130 39 -31 96 -80 127 -108 70 -64 99 -84 125 -84 24 0
221 -89 262 -118 l29 -21 43 24 c32 19 68 27 149 35 200 20 367 62 481 120
181 92 383 284 412 393 7 26 25 54 49 76 44 41 101 167 120 268 20 102 8 349
-22 453 -73 252 -248 486 -478 639 -135 90 -340 182 -315 141z m470 -292 c69
-77 163 -204 190 -259 90 -176 120 -309 111 -488 -3 -69 -9 -128 -14 -133 -11
-11 -46 39 -76 108 -13 33 -40 95 -60 139 -20 44 -36 93 -36 108 0 83 -49 254
-109 382 -33 69 -71 171 -71 189 0 17 23 0 65 -46z m190 -750 c67 -149 54
-265 -51 -477 -55 -111 -77 -143 -145 -216 -74 -77 -144 -133 -154 -123 -3 2
10 40 27 84 28 69 32 94 36 196 l4 118 49 40 c26 23 51 51 54 63 3 12 31 100
62 195 66 198 77 209 118 120z m-319 -520 c19 -30 -9 -151 -50 -222 -28 -48
-109 -127 -152 -149 -16 -8 -64 -22 -106 -31 -72 -16 -84 -16 -163 -1 l-85 16
-48 -25 c-94 -48 -162 -65 -222 -56 -30 5 -63 9 -72 9 -32 2 -19 19 40 51 31
18 81 50 110 72 40 30 74 45 135 59 217 52 402 135 532 239 66 53 70 56 81 38z
m-1331 -62 c147 -119 267 -177 439 -211 71 -14 132 -28 135 -31 10 -11 -61
-63 -107 -79 -25 -8 -77 -15 -115 -15 -63 0 -78 4 -146 41 -108 59 -214 134
-260 184 -50 54 -97 144 -79 149 7 3 20 6 28 9 22 6 60 -10 105 -47z"/>
<path d="M1174 2250 c-248 -65 -443 -250 -530 -505 -25 -73 -28 -94 -28 -230
-1 -199 18 -280 80 -340 30 -30 44 -53 49 -81 9 -57 15 -68 70 -132 47 -55
159 -140 234 -177 57 -29 220 -65 285 -64 l61 1 -52 13 c-102 25 -182 71 -258
149 -85 85 -143 180 -181 291 -37 110 -40 284 -7 390 62 196 233 350 449 405
147 38 282 23 424 -47 104 -52 263 -208 309 -305 35 -74 86 -123 97 -93 10 25
-23 178 -55 261 -92 235 -309 416 -566 469 -104 21 -291 19 -381 -5z m323 -32
c15 -7 46 -13 68 -13 51 -2 178 -42 218 -69 18 -12 42 -37 55 -56 13 -19 37
-40 53 -45 57 -20 134 -110 174 -202 42 -99 44 -137 3 -75 -47 70 -160 180
-193 187 -16 3 -41 13 -55 21 -60 36 -150 75 -210 90 -52 13 -91 15 -190 10
-122 -5 -126 -5 -170 20 l-45 26 -88 -93 c-49 -52 -116 -130 -150 -174 -34
-44 -97 -116 -140 -160 -46 -46 -98 -113 -125 -159 l-46 -79 -9 34 c-12 46 8
197 38 282 53 153 193 324 314 385 35 18 74 32 85 32 12 0 48 11 81 25 52 21
75 25 182 25 73 0 133 -5 150 -12z m-647 -560 c0 -6 -7 -50 -16 -97 -12 -63
-15 -123 -12 -226 4 -124 8 -151 37 -234 17 -52 30 -96 28 -98 -7 -6 -85 85
-130 151 -22 33 -49 81 -59 108 -17 44 -17 53 -2 129 21 113 47 176 95 232 40
47 59 58 59 35z"/>
<path d="M1478 1739 c-116 -27 -250 -135 -301 -242 -40 -85 -50 -137 -45 -235
6 -107 33 -180 97 -259 151 -188 417 -227 620 -92 326 218 238 723 -144 825
-56 15 -170 17 -227 3z"/>
<path d="M2162 1460 c-9 -18 -10 -37 -4 -65 l9 -40 7 36 c4 20 6 49 4 65 l-4
29 -12 -25z"/>
<path d="M262 1059 c2 -7 10 -15 17 -17 8 -3 12 1 9 9 -2 7 -10 15 -17 17 -8
3 -12 -1 -9 -9z"/>
<path d="M291 866 l-22 -24 30 -21 c31 -22 53 -21 46 2 -2 7 -6 24 -9 40 -8
33 -16 34 -45 3z"/>
<path d="M2402 518 c5 -15 28 -18 29 -3 0 6 -7 12 -17 13 -10 3 -15 -1 -12
-10z"/>
<path d="M2246 413 c-30 -44 -21 -63 30 -63 41 0 47 10 39 60 -9 52 -35 53
-69 3z"/>
<path d="M2544 389 c-3 -6 0 -15 7 -20 13 -7 28 5 29 24 0 11 -28 8 -36 -4z"/>
</g>
</svg>
